# xmcd CD database file
#
# Track frame offsets:
#	150
#	17187
#	33447
#	52405
#	69372
#	92212
#	109497
#	137835
#	150285
#	167460
#	183147
#
# Disc length: 2937 seconds
#
# Revision: 3
# Processed by: cddbd v1.5PL3 Copyright (c) Steve Scherf et al.
# Submitted via: CDex 1.51
#
DISCID=8f0b770b
DTITLE=Ian Gillan - Naked Thunder
DYEAR=1990
DGENRE=Hard Rock
TTITLE0=Gut Reaction
TTITLE1=Talking To you
TTITLE2=No Good Luck
TTITLE3=Nothing But The Best
TTITLE4=Loving On Borrowed Time
TTITLE5=Sweet Lolita
TTITLE6=Nothing To Lose
TTITLE7=Moonshine
TTITLE8=Long And Lonely Ride
TTITLE9=Love Gun
TTITLE10=No More Cane On The Brazos
EXTD=YEAR: 1990
EXTT0=
EXTT1=
EXTT2=
EXTT3=
EXTT4=
EXTT5=
EXTT6=
EXTT7=
EXTT8=
EXTT9=
EXTT10=
PLAYORDER=
